<svg width="80" height="80" viewBox="0 0 80 80" fill="none" xmlns="http://www.w3.org/2000/svg">
<circle cx="40" cy="40" r="37.5" fill="white" stroke="#7D7D86" stroke-width="5"/>
<g clip-path="url(#clip0_281_111)">
<path d="M60 56.3737C60 58.7391 59.349 60.7682 58.0469 62.4609C56.7448 64.1536 55.1771 65 53.3438 65H26.6562C24.8229 65 23.2552 64.1536 21.9531 62.4609C20.651 60.7682 20 58.7391 20 56.3737C20 54.5291 20.0885 52.7875 20.2656 51.1491C20.4427 49.5106 20.7708 47.8613 21.25 46.2012C21.7292 44.541 22.3385 43.1196 23.0781 41.9368C23.8177 40.7541 24.7969 39.7884 26.0156 39.0397C27.2344 38.291 28.6354 37.9167 30.2188 37.9167C32.9479 40.6944 36.2083 42.0833 40 42.0833C43.7917 42.0833 47.0521 40.6944 49.7812 37.9167C51.3646 37.9167 52.7656 38.291 53.9844 39.0397C55.2031 39.7884 56.1823 40.7541 56.9219 41.9368C57.6615 43.1196 58.2708 44.541 58.75 46.2012C59.2292 47.8613 59.5573 49.5106 59.7344 51.1491C59.9115 52.7875 60 54.5291 60 56.3737ZM52 27.5C52 30.9505 50.8281 33.8965 48.4844 36.3379C46.1406 38.7793 43.3125 40 40 40C36.6875 40 33.8594 38.7793 31.5156 36.3379C29.1719 33.8965 28 30.9505 28 27.5C28 24.0495 29.1719 21.1035 31.5156 18.6621C33.8594 16.2207 36.6875 15 40 15C43.3125 15 46.1406 16.2207 48.4844 18.6621C50.8281 21.1035 52 24.0495 52 27.5Z" fill="#7D7D86"/>
</g>
<defs>
<clipPath id="clip0_281_111">
<rect width="40" height="50" fill="white" transform="translate(20 15)"/>
</clipPath>
</defs>
</svg>
