<svg width="40" height="40" viewBox="0 0 40 40" fill="none" xmlns="http://www.w3.org/2000/svg">
<path d="M3.11956 11.6602L18.5414 19.107C18.943 19.2984 19.4789 19.3984 20.0094 19.3984C20.5399 19.3984 21.0758 19.2984 21.4766 19.107L36.8985 11.6602C37.7094 11.2695 37.7094 10.6305 36.8985 10.2383L21.4766 2.79141C21.0758 2.6 20.5391 2.5 20.0094 2.5C19.4797 2.5 18.943 2.6 18.5414 2.79141L3.11956 10.2383C2.30862 10.6305 2.30862 11.268 3.11956 11.6602Z" fill="white"/>
<path d="M36.8984 19.2891C36.8984 19.2891 34.082 17.9312 33.7085 17.7484C33.3351 17.5656 33.2343 17.5758 32.8421 17.7578C32.45 17.9398 21.4671 23.2445 21.4671 23.2445C21.0042 23.4444 20.5042 23.544 20 23.5367C19.471 23.5367 18.9335 23.4359 18.5328 23.2445C18.5328 23.2445 7.84136 18.0883 7.33979 17.8398C6.79683 17.5781 6.64058 17.5781 6.14604 17.8125L3.09917 19.2797C2.28823 19.6703 2.28823 20.3102 3.09917 20.7016L18.5234 28.1484C18.9242 28.3398 19.4609 28.4398 19.9906 28.4398C20.5203 28.4398 21.057 28.3398 21.4585 28.1484L36.8804 20.7031C37.7093 20.3188 37.7093 19.6813 36.8984 19.2891Z" fill="white"/>
<path d="M36.8984 28.3398C36.8984 28.3398 34.082 26.982 33.7086 26.7969C33.3352 26.6117 33.2344 26.6242 32.8422 26.8062C32.45 26.9883 21.4766 32.3047 21.4766 32.3047C21.0135 32.5042 20.5135 32.6036 20.0094 32.5961C19.4805 32.5961 18.943 32.4961 18.5414 32.3047C18.5414 32.3047 7.85 27.1484 7.34922 26.9C6.80234 26.6352 6.64609 26.6352 6.15469 26.8727L3.10781 28.3398C2.29609 28.7305 2.29609 29.3695 3.10781 29.7617L18.5297 37.2086C18.9305 37.4086 19.4672 37.5 19.9969 37.5C20.5266 37.5 21.0633 37.4 21.4641 37.2086L36.8891 29.7656C37.7094 29.3695 37.7094 28.732 36.8984 28.3398Z" fill="white"/>
</svg>
