<svg width="28" height="26" viewBox="0 0 28 26" fill="none" xmlns="http://www.w3.org/2000/svg">
<path d="M26.7273 15.2727H25.4545C25.4545 10.3473 21.4709 6.36364 16.5455 6.36364H15.2727V4.74727C16.0364 4.31455 16.5455 3.48727 16.5455 2.54545C16.5455 1.14545 15.4127 0 14 0C12.5873 0 11.4545 1.14545 11.4545 2.54545C11.4545 3.48727 11.9636 4.31455 12.7273 4.74727V6.36364H11.4545C6.52909 6.36364 2.54545 10.3473 2.54545 15.2727H1.27273C0.572727 15.2727 0 15.8455 0 16.5455V20.3636C0 21.0636 0.572727 21.6364 1.27273 21.6364H2.54545V22.9091C2.54545 24.3218 3.69091 25.4545 5.09091 25.4545H22.9091C24.3218 25.4545 25.4545 24.3218 25.4545 22.9091V21.6364H26.7273C27.4273 21.6364 28 21.0636 28 20.3636V16.5455C28 15.8455 27.4273 15.2727 26.7273 15.2727ZM25.4545 19.0909H22.9091V22.9091H5.09091V19.0909H2.54545V17.8182H5.09091V15.2727C5.09091 11.76 7.94182 8.90909 11.4545 8.90909H16.5455C20.0582 8.90909 22.9091 11.76 22.9091 15.2727V17.8182H25.4545V19.0909ZM9.54545 14.6364L12.5491 17.64L11.0473 19.1418L9.54545 17.64L8.04364 19.1418L6.54182 17.64L9.54545 14.6364ZM18.4545 14.6364L21.4582 17.64L19.9564 19.1418L18.4545 17.64L16.9527 19.1418L15.4509 17.64L18.4545 14.6364Z" fill="#A2BAE9"/>
</svg>
