<svg width="29" height="29" viewBox="0 0 29 29" fill="none" xmlns="http://www.w3.org/2000/svg">
<path d="M27.6818 16.9708H26.3636C26.3636 11.4977 22.2377 7.07118 17.1364 7.07118H15.8182V5.2751C16.6091 4.79426 17.1364 3.87501 17.1364 2.82847C17.1364 1.27281 15.9632 0 14.5 0C13.0368 0 11.8636 1.27281 11.8636 2.82847C11.8636 3.87501 12.3909 4.79426 13.1818 5.2751V7.07118H11.8636C6.76227 7.07118 2.63636 11.4977 2.63636 16.9708H1.31818C0.593182 16.9708 0 17.6072 0 18.3851V22.6278C0 23.4056 0.593182 24.042 1.31818 24.042H2.63636V25.4562C2.63636 27.026 3.82273 28.2847 5.27273 28.2847H23.7273C25.1905 28.2847 26.3636 27.026 26.3636 25.4562V24.042H27.6818C28.4068 24.042 29 23.4056 29 22.6278V18.3851C29 17.6072 28.4068 16.9708 27.6818 16.9708ZM26.3636 21.2135H23.7273V25.4562H5.27273V21.2135H2.63636V19.7993H5.27273V16.9708C5.27273 13.0675 8.22546 9.89965 11.8636 9.89965H17.1364C20.7745 9.89965 23.7273 13.0675 23.7273 16.9708V19.7993H26.3636V21.2135ZM9.88636 16.2637L12.9973 19.6013L11.4418 21.2701L9.88636 19.6013L8.33091 21.2701L6.77545 19.6013L9.88636 16.2637ZM19.1136 16.2637L22.2245 19.6013L20.6691 21.2701L19.1136 19.6013L17.5582 21.2701L16.0027 19.6013L19.1136 16.2637Z" fill="white"/>
</svg>
