<svg width="40" height="40" viewBox="0 0 40 40" fill="none" xmlns="http://www.w3.org/2000/svg">
<path fill-rule="evenodd" clip-rule="evenodd" d="M26.6666 15C26.6666 16.7681 25.9642 18.4638 24.714 19.714C23.4637 20.9643 21.768 21.6667 19.9999 21.6667C18.2318 21.6667 16.5361 20.9643 15.2859 19.714C14.0356 18.4638 13.3333 16.7681 13.3333 15C13.3333 13.2319 14.0356 11.5362 15.2859 10.2859C16.5361 9.03571 18.2318 8.33333 19.9999 8.33333C21.768 8.33333 23.4637 9.03571 24.714 10.2859C25.9642 11.5362 26.6666 13.2319 26.6666 15ZM23.3333 15C23.3333 15.884 22.9821 16.7319 22.3569 17.357C21.7318 17.9821 20.884 18.3333 19.9999 18.3333C19.1159 18.3333 18.268 17.9821 17.6429 17.357C17.0178 16.7319 16.6666 15.884 16.6666 15C16.6666 14.1159 17.0178 13.2681 17.6429 12.643C18.268 12.0179 19.1159 11.6667 19.9999 11.6667C20.884 11.6667 21.7318 12.0179 22.3569 12.643C22.9821 13.2681 23.3333 14.1159 23.3333 15Z" fill="white"/>
<path fill-rule="evenodd" clip-rule="evenodd" d="M20 1.66666C9.87496 1.66666 1.66663 9.875 1.66663 20C1.66663 30.125 9.87496 38.3333 20 38.3333C30.125 38.3333 38.3333 30.125 38.3333 20C38.3333 9.875 30.125 1.66666 20 1.66666ZM4.99996 20C4.99996 23.4833 6.18829 26.69 8.17996 29.2367C9.57868 27.3998 11.3831 25.9112 13.4523 24.8872C15.5216 23.8631 17.7995 23.3313 20.1083 23.3333C22.3872 23.3312 24.6365 23.8492 26.6848 24.848C28.7332 25.8467 30.5266 27.2999 31.9283 29.0967C33.3724 27.2027 34.3447 24.992 34.7648 22.6476C35.1849 20.3033 35.0407 17.8926 34.3441 15.615C33.6476 13.3374 32.4187 11.2584 30.7591 9.55006C29.0995 7.84171 27.057 6.5531 24.8006 5.79085C22.5441 5.02859 20.1386 4.81462 17.7831 5.16662C15.4275 5.51862 13.1896 6.42648 11.2546 7.81509C9.31954 9.20369 7.74298 11.0331 6.65534 13.152C5.56771 15.2709 5.00026 17.6183 4.99996 20ZM20 35C16.5565 35.0052 13.2171 33.8206 10.5466 31.6467C11.6215 30.1079 13.0522 28.8515 14.7169 27.9845C16.3817 27.1174 18.2313 26.6653 20.1083 26.6667C21.9619 26.6652 23.7891 27.106 25.4382 27.9524C27.0872 28.7988 28.5106 30.0264 29.59 31.5333C26.8988 33.7778 23.5043 35.0049 20 35Z" fill="white"/>
</svg>
