<svg width="22" height="22" viewBox="0 0 22 22" fill="none" xmlns="http://www.w3.org/2000/svg">
<path d="M0.970044 0.0702261L21.6245 10.3884C21.9578 10.5548 22.0948 10.9636 21.9306 11.3014C21.8651 11.4362 21.7575 11.5453 21.6245 11.6117L0.970468 21.9296C0.637263 22.0961 0.234047 21.9572 0.0698588 21.6194C-0.00193591 21.4716 -0.0185786 21.3026 0.0230049 21.1434L2.06936 13.309C2.13704 13.05 2.34815 12.8551 2.60892 12.811L11.865 11.2464C11.9784 11.2272 12.0722 11.1513 12.1172 11.0481L12.1415 10.9661C12.1676 10.8069 12.0804 10.6551 11.9396 10.5955L11.865 10.5738L2.55666 9.00094C2.29579 8.95686 2.08461 8.76188 2.01699 8.50266L0.0225385 0.856288C-0.0724722 0.492223 0.141618 0.119006 0.500723 0.0226827C0.657695 -0.0194221 0.824393 -0.00253522 0.970044 0.0702261Z" fill="#999BA3"/>
</svg>
