<svg width="60" height="80" viewBox="0 0 60 80" fill="none" xmlns="http://www.w3.org/2000/svg">
<path d="M29.9997 55C30.6628 55 31.2987 54.7366 31.7675 54.2677C32.2364 53.7989 32.4997 53.163 32.4997 52.5V33.535L38.2297 39.27C38.6992 39.7394 39.3359 40.0031 39.9997 40.0031C40.6636 40.0031 41.3003 39.7394 41.7697 39.27C42.2392 38.8005 42.5029 38.1638 42.5029 37.5C42.5029 36.8361 42.2392 36.1994 41.7697 35.73L31.7697 25.73C31.5375 25.4971 31.2616 25.3124 30.9579 25.1864C30.6542 25.0604 30.3286 24.9955 29.9997 24.9955C29.6709 24.9955 29.3453 25.0604 29.0416 25.1864C28.7378 25.3124 28.462 25.4971 28.2297 25.73L18.2297 35.73C17.7603 36.1994 17.4966 36.8361 17.4966 37.5C17.4966 38.1638 17.7603 38.8005 18.2297 39.27C18.6992 39.7394 19.3359 40.0031 19.9997 40.0031C20.6636 40.0031 21.3003 39.7394 21.7697 39.27L27.4997 33.535V52.5C27.4997 53.163 27.7631 53.7989 28.232 54.2677C28.7008 54.7366 29.3367 55 29.9997 55Z" fill="#5B7CBC"/>
<path d="M10 0C7.34784 0 4.8043 1.05357 2.92893 2.92893C1.05357 4.8043 0 7.34784 0 10V70C0 72.6522 1.05357 75.1957 2.92893 77.0711C4.8043 78.9464 7.34784 80 10 80H50C52.6522 80 55.1957 78.9464 57.0711 77.0711C58.9464 75.1957 60 72.6522 60 70V10C60 7.34784 58.9464 4.8043 57.0711 2.92893C55.1957 1.05357 52.6522 0 50 0L10 0ZM10 5H50C51.3261 5 52.5979 5.52678 53.5355 6.46447C54.4732 7.40215 55 8.67392 55 10V70C55 71.3261 54.4732 72.5979 53.5355 73.5355C52.5979 74.4732 51.3261 75 50 75H10C8.67392 75 7.40215 74.4732 6.46447 73.5355C5.52678 72.5979 5 71.3261 5 70V10C5 8.67392 5.52678 7.40215 6.46447 6.46447C7.40215 5.52678 8.67392 5 10 5Z" fill="#5B7CBC"/>
</svg>
